<?xml version="1.0" encoding="utf-8"?>
<!-- Generator: Adobe Illustrator 21.0.0, SVG Export Plug-In . SVG Version: 6.00 Build 0)  -->
<svg version="1.1" id="Layer_1" xmlns="http://www.w3.org/2000/svg" xmlns:xlink="http://www.w3.org/1999/xlink" x="0px" y="0px"
	 viewBox="0 0 813.7 1184.3" style="enable-background:new 0 0 813.7 1184.3;" xml:space="preserve">
<style type="text/css">
	.st0{fill:none;stroke:#1A1A18;stroke-width:4.252;stroke-miterlimit:22.9256;}
	.st1{fill:none;stroke:#1A1A18;stroke-width:0.5669;stroke-miterlimit:22.9256;}
	.st2{fill:none;stroke:#1A1A18;stroke-width:7.0866;stroke-miterlimit:22.9256;}
	.st3{fill:none;stroke:#1A1A18;stroke-width:14.1732;stroke-miterlimit:22.9256;}
	.st4{fill-rule:evenodd;clip-rule:evenodd;}
</style>
<path class="st0" d="M285.3,1135.2h75.1v42.9c-15.9,3.4-31.8,4.7-47.7,3.8v0c-5.6-0.3-11.1-0.9-16.7-1.8c-3.6-0.6-7.2-1.2-10.7-2v0
	V1135.2z"/>
<rect x="302.3" y="1085.9" class="st0" width="41.1" height="49.3"/>
<path class="st1" d="M41.1,84.4c-2.2,230.2,22.4,398.2,73.8,504c21.4,37.2,50.1,70.6,85.9,100.3c17,12.6,25,32.6,24.2,59.9
	c2.3,118.2,4.3,207.6,5.7,268.2c0.1,4.9,0.6,6.3,3.4,9.3c14.9,16.2,53.6,56,68.3,56"/>
<path class="st2" d="M405.8,11.5C251.7,10.7,118.8,19.6,7.1,38.4 M7.1,38.4c0,25.2,0,37.8,0,37.8c11,5.2,22.4,7.9,34,8.2
	 M804.6,76.2c-232.7-39-564.8-39-797.5,0"/>
<path class="st3" d="M343.4,1082.2h166c14.7,0,53.4-39.8,68.3-56c2.8-3,3.3-4.4,3.4-9.3c1.4-60.6,3.4-150,5.7-268.2
	c-0.9-27.3,7.2-47.3,24.2-59.9c35.8-29.6,64.4-63.1,85.9-100.3c51.4-105.7,76-273.7,73.8-504c11.6-0.3,22.9-3,34-8.2
	c0,0,0-12.6,0-37.8c-232.7-39-564.8-39-797.5,0c0,25.2,0,37.8,0,37.8c11,5.2,22.4,7.9,34,8.2c-2.2,230.3,22.4,398.2,73.8,504
	c21.4,37.2,50.1,70.6,85.9,100.3c17,12.6,25,32.6,24.2,59.9c2.3,118.2,4.3,207.6,5.7,268.2c0.1,4.9,0.6,6.3,3.4,9.3
	c14.9,16.2,53.6,56,68.3,56h166"/>
<path class="st0" d="M580.5,1021.9c-26.8,7.6-88.6,10.4-174.7,10.6c-86-0.1-147.9-2.9-174.7-10.6"/>
<path class="st0" d="M285.3,1178.1c25,5.4,50.1,5.4,75.1,0"/>
<line class="st0" x1="307.7" y1="1085.9" x2="307.7" y2="1135.2"/>
<line class="st0" x1="318" y1="1085.9" x2="318" y2="1135.2"/>
<line class="st0" x1="296" y1="1135.2" x2="296" y2="1180.1"/>
<line class="st0" x1="312.7" y1="1135.2" x2="312.7" y2="1181.9"/>
<rect x="468.3" y="1085.9" class="st0" width="41.1" height="49.3"/>
<path class="st2" d="M590.5,52.6c-2.2,114.1-1.5,171.9-6.7,285.5c-1.7,37.4-11,51-44.9,51c-30.3,0-65.9-32-133.1-32.4
	c-67.1,0.3-102.8,32.4-133.1,32.4c-33.9,0-43.1-13.6-44.9-51c-5.2-113.6-4.5-171.4-6.7-285.5"/>
<path class="st0" d="M129.7,611.9c184.1,26.4,368.2,26.4,552.3,0"/>
<polygon class="st4" points="307.7,1085.9 307.7,1135.2 312.7,1135.2 318,1135.2 318,1085.9 "/>
<path class="st4" d="M307.7,1135.2l-5.4,0l-6.2,0v44.9c5.6,0.9,11.1,1.4,16.7,1.8v-46.7L307.7,1135.2z"/>
<path class="st0" d="M451.3,1135.2h75.1v42.9c-15.9,3.4-31.8,4.7-47.7,3.8v0c-5.6-0.3-11.1-0.9-16.7-1.8c-3.6-0.6-7.2-1.2-10.7-2v0
	V1135.2z"/>
<path class="st0" d="M451.3,1178.1c25,5.4,50.1,5.4,75.1,0"/>
<line class="st0" x1="473.6" y1="1085.9" x2="473.6" y2="1135.2"/>
<line class="st0" x1="483.9" y1="1085.9" x2="483.9" y2="1135.2"/>
<line class="st0" x1="462" y1="1135.2" x2="462" y2="1180.1"/>
<line class="st0" x1="478.7" y1="1135.2" x2="478.7" y2="1181.9"/>
<polygon class="st4" points="473.6,1085.9 473.6,1135.2 478.7,1135.2 483.9,1135.2 483.9,1085.9 "/>
<path class="st4" d="M473.6,1135.2l-5.4,0l-6.2,0v44.9c5.6,0.9,11.1,1.4,16.7,1.8v-46.7L473.6,1135.2z"/>
<g>
	<path d="M336.3,126.7C336.3,126.7,336.3,126.8,336.3,126.7c1.3,0.5,1.8,1.2,1.8,2.5c0,4.2,0,8.5,0,12.7c0,0.3,0,0.6,0.1,1
		c0.3,1,1.1,1.6,2.1,1.6c2.4,0,4.8,0,7.1,0c2,0,4,0,6,0c1.1,0,2,0.7,2.3,1.7c0.1,0.3,0.1,0.6,0.1,0.9c0,6.9,0,13.9,0,20.8
		c0,3.2,0,6.4,0,9.6c0,0.3,0,0.6-0.1,0.9c-0.3,0.9-1,1.5-2,1.6c-0.1,0-0.2,0-0.3,0c-4.3,0-8.7,0-13,0c-0.4,0-0.8-0.1-1.2-0.3
		c-0.7-0.4-1.2-1-1.2-1.9c0-2.9,0-5.8,0-8.6c0-1.6,0-3.2,0-4.8c0-1-0.6-1.8-1.6-2c-0.3-0.1-0.6-0.1-0.9-0.1c-4.3,0-8.6,0-12.8,0
		c-0.3,0-0.6,0-0.9-0.1c-0.9-0.3-1.5-1.1-1.5-2c0-0.2,0-0.4,0-0.5c0-4.3,0-8.5,0-12.8c0-0.9-0.4-1.6-1.2-2.1
		c-0.4-0.2-0.8-0.2-1.2-0.2c-2.1,0-4.2,0-6.3,0c-2.2,0-4.3,0-6.5,0c-1.3,0-1.9-0.4-2.4-1.6c0-0.1-0.1-0.2-0.2-0.2
		c0-4.7,0-9.4,0-14.1c0.1-0.2,0.2-0.3,0.2-0.5c0.2-0.6,0.6-1,1.2-1.3c0.2-0.1,0.3-0.1,0.5-0.2C315.1,126.7,325.7,126.7,336.3,126.7z
		"/>
	<path d="M390.7,126.7C390.7,126.8,390.7,126.8,390.7,126.7c1.2,0.4,1.8,1.1,1.8,2.3c0,2.7,0,5.3,0,8c0,1.4-1,2.3-2.3,2.3
		c-4.1,0-8.1,0-12.2,0c-0.6,0-0.5-0.1-0.5,0.5c0,12.4,0,24.9,0,37.3c0,0.2,0,0.5,0,0.7c0,1.3-0.9,2.2-2.2,2.2c-1.7,0-3.4,0-5.1,0
		c-1.3,0-2.5,0-3.8,0c-1.1,0-1.9-0.7-2.1-1.7c-0.1-0.3,0-0.6,0-0.9c0-8.9,0-17.9,0-26.8c0-3.6,0-7.2,0-10.8c0-0.6,0.1-0.5-0.5-0.5
		c-4.1,0-8.1,0-12.2,0c-0.6,0-1.1-0.1-1.6-0.5c-0.5-0.5-0.8-1-0.8-1.7c0-1.3,0-2.6,0-3.9c0-1.3,0-2.7,0-4c0-1.2,0.6-2,1.8-2.3
		c0,0,0,0,0.1-0.1C364.2,126.7,377.4,126.7,390.7,126.7z"/>
	<path d="M466.9,180.3c-4.4-0.3-8.6-1.5-12.3-4c-1-0.7-1.3-1.8-0.7-2.9c0.7-1.3,1.4-2.6,2.1-3.9c0.6-1.1,1.9-1.4,3-0.8
		c1.2,0.7,2.5,1.3,3.8,1.7c1.5,0.5,3.1,0.9,4.8,0.8c0.8,0,1.6-0.1,2.3-0.5c0.4-0.2,0.7-0.4,1-0.7c0.4-0.4,0.4-0.8,0.2-1.3
		c-0.2-0.4-0.6-0.7-1-0.9c-0.5-0.3-1.1-0.5-1.7-0.7c-1.5-0.4-2.9-0.8-4.4-1.2c-1.4-0.4-2.8-0.9-4.1-1.7c-2.2-1.3-3.7-3.1-4.3-5.5
		c-0.6-2.5-0.5-5,0.4-7.5c0.8-2.1,2.3-3.7,4.3-4.8c1.6-1,3.4-1.5,5.3-1.9c2.1-0.5,4.3-0.6,6.5-0.5c3.1,0.2,6.1,1,9,2.2
		c1.1,0.5,1.6,1.9,1.1,3c-0.7,1.3-1.4,2.6-2.1,3.9c-0.5,0.9-1.7,1.2-2.9,0.8c-0.9-0.4-1.9-0.7-2.8-0.9c-1.3-0.3-2.7-0.4-4-0.1
		c-0.5,0.1-0.9,0.3-1.3,0.5c-1,0.7-0.9,2.2,0.1,2.8c0.6,0.4,1.4,0.6,2.1,0.7c1.4,0.3,2.7,0.5,4.1,0.8c1.5,0.3,2.9,0.8,4.2,1.5
		c2.6,1.5,4,3.7,4.3,6.6c0.3,2.1,0.1,4.1-0.5,6.1c-1,2.9-2.9,4.9-5.6,6.3c-1.8,0.9-3.8,1.4-5.8,1.7c-0.7,0.1-1.3,0.1-2,0.2
		c-0.1,0-0.1,0-0.2,0.1C468.8,180.3,467.9,180.3,466.9,180.3z"/>
	<path d="M509.1,154.2c-0.2,0.1-0.1,0.3-0.2,0.4c-0.5,0.7-1.1,1-1.9,1c-1.1,0-2.1,0-3.2,0c-0.1,0-0.3,0-0.4,0c-0.4,0-0.4,0-0.4,0.4
		c0,4,0,7.9,0,11.9c0,1.3,0.7,2.2,1.9,2.8c0.5,0.2,1,0.4,1.6,0.4c0.4,0,0.9,0.1,1.3,0.3c0.8,0.4,1.3,1,1.3,1.9c0,1.4,0,2.9,0,4.3
		c0,0.8-0.4,1.3-1,1.7c-0.4,0.2-0.8,0.3-1.2,0.4c-2.2,0.4-4.4,0.5-6.6,0.4c-2-0.1-4-0.5-5.9-1.4c-2.6-1.3-4.1-3.4-4.4-6.3
		c-0.1-0.5-0.1-1-0.1-1.5c0-4.8,0-9.6,0-14.4c0-0.6,0.1-0.5-0.5-0.5c-0.7,0-1.4,0-2,0c-1.1,0-1.9-0.6-2.2-1.6
		c-0.1-0.2-0.1-0.4-0.1-0.6c0-2.1,0-4.1,0-6.2c0-1.3,0.9-2.2,2.3-2.3c0.7,0,1.4,0,2.2,0c0.7,0,0.6,0.1,0.6-0.6c0-2.3,0-4.6,0-6.9
		c0-0.7,0.2-1.3,0.7-1.7c0.5-0.4,1-0.6,1.6-0.6c2.4,0,4.8,0,7.2,0c0.5,0,1,0,1.5,0c1.2,0,2.1,0.8,2.2,2c0,0.2,0,0.4,0,0.5
		c0,2.2,0,4.4,0,6.7c0,0.1,0,0.3,0,0.4c0,0.1,0.1,0.2,0.2,0.2c0.1,0,0.2,0,0.3,0c1,0,2,0,3,0c0.7,0,1.4,0.2,1.9,0.8
		c0.2,0.2,0.3,0.5,0.4,0.7C509.1,149.2,509.1,151.7,509.1,154.2z"/>
	<path d="M302.6,164.1c0.2-0.1,0.2-0.2,0.2-0.4c0.4-0.9,1.1-1.4,2.1-1.4c4.4,0,8.7,0,13.1,0c1.2,0,2,0.7,2.3,1.7
		c0.1,0.2,0.1,0.4,0.1,0.7c0,4.4,0,8.7,0,13.1c0,1.2-1,2.3-2.2,2.2c-1.4,0-2.8,0-4.2,0c-3,0-5.9,0-8.9,0c-1.2,0-1.9-0.5-2.3-1.5
		c0-0.1-0.1-0.2-0.2-0.2C302.6,173.5,302.6,168.8,302.6,164.1z"/>
	<path d="M436.4,175.8c-0.3,0.9-0.9,1.6-1.7,2.1c-1.2,0.9-2.5,1.4-3.9,1.7c-2,0.5-4.1,0.5-6.2,0.4c-1.6,0-3.2-0.4-4.7-1.1
		c-3.8-1.9-5.9-4.9-6.5-9.1c-0.1-0.5-0.1-1-0.1-1.5c0-6.9,0-13.9,0-20.8c0-1.3,1-2.3,2.3-2.3c1.7,0,3.4,0,5.2,0c1.4,0,2.8,0,4.2,0
		c0.3,0,0.6,0,0.9,0.1c0.9,0.2,1.5,1,1.6,1.9c0,0.2,0,0.4,0,0.6c0,5.4,0,10.8,0,16.2c0,1.6,0.6,2.8,1.8,3.8c1.4,1,3,1.2,4.6,0.4
		c1.6-0.8,2.4-2.1,2.5-3.9c0-0.3,0-0.6,0-0.9c0-5.2,0-10.5,0-15.7c0-0.3,0-0.6,0.1-0.9c0.2-0.9,1-1.6,1.9-1.6c0.1,0,0.3,0,0.4,0
		c3.1,0,6.2,0,9.3,0c0.4,0,0.8,0,1.1,0.2c0.8,0.4,1.2,1,1.3,1.9c0,0.2,0,0.4,0,0.5c0,7.3,0,14.6,0,22c0,2.6,0,5.2,0,7.9
		c0,1.4-1.1,2.4-2.4,2.4c-3.1,0-6.1,0-9.2,0c-0.3,0-0.5,0-0.8,0c-1-0.2-1.7-1.1-1.7-2.2C436.3,177.1,436.4,176.5,436.4,175.8z"/>
	<path d="M398.8,147.6c0.7-1.5,2.1-2.1,3.6-2.6c1.1-0.3,2.2-0.5,3.4-0.5c0.5,0,1,0,1.4,0c1.3,0,2.2,0.9,2.2,2.2c0,0,0,0.1,0,0.1
		c0,2.3,0,4.5,0,6.8c0,0.4,0,0.8-0.2,1.2c-0.4,0.8-1,1.2-1.9,1.2c-0.8,0-1.5,0-2.3,0c-3,0-5.5,2-6.1,5c-0.1,0.5-0.1,1-0.1,1.4
		c0,5,0,10.1,0,15.1c0,0.6-0.1,1.2-0.6,1.7c-0.5,0.5-1,0.8-1.7,0.8c-1.5,0-2.9,0-4.4,0c-1.4,0-2.8,0-4.2,0c-1.2,0-2.4-0.8-2.4-2.4
		c0-3.8,0-7.5,0-11.3c0-6.2,0-12.4,0-18.6c0-0.3,0-0.6,0.1-1c0.3-0.9,1.1-1.5,2.1-1.5c1.4,0,2.7,0,4.1,0c1.5,0,3,0.1,4.5,0
		C397.7,145.1,398.8,146.2,398.8,147.6z"/>
</g>
<g>
	<path d="M321.2,234.4l-6.7,28H311l-6.1-21.7l-5.7,21.7h-3.6l-7.1-28h3.6l5.6,22.7l5.9-22.7h2.9l6.4,22.7l5.2-22.7H321.2z"/>
	<path d="M341.5,262.4h-3.2v-12.6c0-1.5-0.1-2.6-0.3-3.3c-0.2-0.7-0.6-1.4-1.3-1.9c-0.7-0.5-1.5-0.8-2.4-0.8c-1.7,0-3,0.7-4.2,2
		c-1.1,1.4-1.7,3.2-1.7,5.4v11.2h-3.2v-28h3.2v11.1c1.5-2.9,3.6-4.4,6.3-4.4c1.2,0,2.3,0.2,3.2,0.7c0.9,0.5,1.7,1.1,2.2,1.9
		c0.5,0.8,0.9,1.5,1,2.3s0.3,2,0.3,3.8V262.4z"/>
	<path d="M351.2,234.4v3.6h-3.5v-3.6H351.2z M351.1,241.7v20.7h-3.2v-20.7H351.1z"/>
	<path d="M366.9,260.2v2.5c-1.1,0.1-2.1,0.2-3,0.2c-4,0-6-2.1-6-6.3v-12.5h-3.7v-2.5h3.7l0.1-5.2l3-0.3v5.5h4.6v2.5h-4.6v13
		c0,2.1,1.1,3.2,3.3,3.2C365.2,260.4,366,260.3,366.9,260.2z"/>
	<path d="M383.4,256.2l3,0.6c-0.5,1.8-1.6,3.2-3.2,4.4c-1.6,1.2-3.5,1.7-5.6,1.7c-2.8,0-5.1-1-6.9-3c-1.7-2-2.6-4.6-2.6-7.8
		c0-3.3,0.9-6,2.7-8c1.8-2,4.1-3,6.8-3c2.7,0,4.9,0.9,6.5,2.8c1.6,1.9,2.5,4.7,2.5,8.4h-15c0,3.1,0.7,5.2,2,6.3s2.7,1.6,4.2,1.6
		C380.5,260.3,382.3,258.9,383.4,256.2z M383.2,249.9c0-1.2-0.2-2.2-0.6-3.1s-1-1.7-1.8-2.3c-0.8-0.6-1.9-1-3.1-1
		c-1.6,0-3,0.6-4.1,1.7s-1.7,2.7-1.9,4.6H383.2z"/>
	<path d="M425.3,259.4v3c-1.2,0.2-2.3,0.3-3,0.3c-0.6,0-1.2-0.1-1.8-0.3s-1.6-0.9-2.8-2.2c-2.2,1.9-4.7,2.8-7.5,2.8
		c-2.8,0-5.1-0.8-6.8-2.4c-1.7-1.6-2.6-3.6-2.6-5.9c0-1.8,0.6-3.5,1.8-5.1c1.2-1.6,3-2.7,5.4-3.5c-1.8-2.6-2.7-4.7-2.7-6.4
		c0-1.6,0.6-3,1.7-4.1c1.1-1.2,2.6-1.7,4.5-1.7c1.9,0,3.5,0.5,4.7,1.6c1.2,1.1,1.8,2.5,1.8,4.4c0,3-2,5.4-5.9,7.3l5.9,9
		c1.9-2.4,3.2-5.4,3.8-9l3,0.6c-0.8,4-2.5,7.5-5.1,10.5c0.9,1,1.9,1.4,3,1.4C423.2,259.6,424.1,259.6,425.3,259.4z M409.3,248.2
		c-1.9,0.8-3.3,1.7-4,2.7s-1.1,2.2-1.1,3.6c0,2,0.6,3.4,1.9,4.4c1.3,0.9,2.7,1.4,4.4,1.4c2.1,0,4-0.7,5.5-2.2L409.3,248.2z
		 M410.7,245.1c2.2-1.2,3.5-2.2,4-2.9c0.5-0.7,0.7-1.5,0.7-2.1c0-1-0.3-1.8-1-2.5c-0.7-0.7-1.6-1.1-2.7-1.1c-1,0-1.8,0.3-2.4,0.9
		c-0.6,0.6-1,1.3-1,2.1C408.2,240.7,409.1,242.5,410.7,245.1z"/>
	<path d="M452.8,255.1l2.9,0.5c-0.4,2.3-1.3,4.1-2.7,5.4c-1.4,1.3-3.2,1.9-5.3,1.9c-2.9,0-5-1.1-6.5-3.2c-1.5-2.1-2.2-4.7-2.2-7.7
		c0-3.1,0.8-5.8,2.4-7.8c1.6-2.1,3.7-3.1,6.4-3.1c2.3,0,4.1,0.7,5.4,2c1.4,1.3,2.2,3.1,2.5,5.2l-2.9,0.6c-0.5-3.4-2.2-5.1-5-5.1
		c-1.8,0-3.1,0.8-4.1,2.3c-1,1.5-1.4,3.5-1.4,5.9c0,2.7,0.5,4.7,1.4,6.2c0.9,1.5,2.3,2.2,4,2.2C450.4,260.3,452.1,258.6,452.8,255.1
		z"/>
	<path d="M467.5,263c-2.8,0-5.1-1.1-6.7-3.2c-1.6-2.1-2.4-4.7-2.4-7.8c0-3.3,0.9-5.9,2.7-7.9s4-3,6.7-3c2.9,0,5.1,1,6.8,3.1
		c1.6,2.1,2.5,4.7,2.5,7.8c0,3.2-0.9,5.9-2.7,7.9S470.3,263,467.5,263z M467.8,260.3c1.6,0,3-0.7,4.1-2c1.1-1.4,1.7-3.5,1.7-6.3
		c0-2.9-0.6-5-1.7-6.2c-1.2-1.3-2.5-1.9-4.1-1.9c-1.6,0-3,0.7-4.1,2c-1.1,1.3-1.7,3.4-1.7,6.2c0,3,0.6,5.1,1.7,6.4
		C464.8,259.7,466.1,260.3,467.8,260.3z"/>
	<path d="M485.1,262.4h-3.2v-28h3.2V262.4z"/>
	<path d="M499,263c-2.8,0-5.1-1.1-6.7-3.2c-1.6-2.1-2.4-4.7-2.4-7.8c0-3.3,0.9-5.9,2.7-7.9s4-3,6.7-3c2.9,0,5.1,1,6.8,3.1
		c1.6,2.1,2.5,4.7,2.5,7.8c0,3.2-0.9,5.9-2.7,7.9S501.8,263,499,263z M499.2,260.3c1.6,0,3-0.7,4.1-2c1.1-1.4,1.7-3.5,1.7-6.3
		c0-2.9-0.6-5-1.7-6.2c-1.2-1.3-2.5-1.9-4.1-1.9c-1.6,0-3,0.7-4.1,2c-1.1,1.3-1.7,3.4-1.7,6.2c0,3,0.6,5.1,1.7,6.4
		C496.2,259.7,497.6,260.3,499.2,260.3z"/>
	<path d="M516.6,262.4h-3.2v-20.7h2.8v4.8c1-2.3,2-3.8,3-4.4c1-0.7,2-1,3.1-1c0.3,0,0.8,0,1.3,0.1v3.1h-0.7c-1.8,0-3.3,0.7-4.4,2
		c-1.2,1.3-1.8,3.1-1.9,5.2V262.4z"/>
	<path d="M351.1,310.6v2.5c-1.1,0.1-2.1,0.2-3,0.2c-4,0-6-2.1-6-6.3v-12.5h-3.7v-2.5h3.7l0.1-5.2l3-0.3v5.5h4.6v2.5h-4.6v13
		c0,2.1,1.1,3.2,3.3,3.2C349.4,310.8,350.2,310.7,351.1,310.6z"/>
	<path d="M371,312.8H368v-4c-1.5,3-3.7,4.5-6.6,4.5c-2.1,0-3.8-0.7-5-2.1c-1.2-1.4-1.8-3.4-1.8-6v-13.2h3.2v13.2
		c0,2,0.4,3.5,1.3,4.2c0.9,0.8,1.8,1.2,2.8,1.2c1,0,2-0.3,2.8-0.9c0.8-0.6,1.5-1.4,2.1-2.5c0.6-1.1,0.8-2.3,0.8-3.6v-11.7h3.2V312.8
		z"/>
	<path d="M393.7,312.8h-3v-13.3c0-1.9-0.4-3.3-1.3-4s-1.8-1.2-3-1.2c-1.6,0-3,0.7-4.1,2c-1.1,1.3-1.7,3-1.7,5.2v11.4h-3.2v-20.7h3
		v3.8c1.7-2.9,3.9-4.4,6.5-4.4c1.5,0,2.9,0.4,3.9,1.2c1.1,0.8,1.8,1.7,2.2,2.7c0.4,1,0.6,2.8,0.6,5.4V312.8z"/>
	<path d="M416.3,312.8h-3.2c-0.1-0.7-0.2-1.9-0.4-3.7c-1.4,2.9-3.8,4.3-7.3,4.3c-2.3,0-4.1-0.6-5.4-1.8c-1.2-1.2-1.9-2.7-1.9-4.4
		c0-2.1,0.9-3.8,2.7-5.2s4.8-2,9.1-2c0.6,0,1.5,0,2.7,0.1c0-1.6-0.1-2.8-0.4-3.6c-0.3-0.7-0.8-1.3-1.6-1.8s-1.9-0.7-3.2-0.7
		c-3.3,0-5.2,1.2-5.7,3.7l-3-0.5c0.7-3.8,3.8-5.7,9.1-5.7c2.9,0,4.9,0.6,6.1,1.9c1.2,1.3,1.8,3.5,1.8,6.6v8.8
		C415.9,310.2,416,311.5,416.3,312.8z M412.8,302.4c-1.3-0.1-2.3-0.1-3-0.1c-2.5,0-4.5,0.4-5.9,1.3c-1.4,0.8-2.1,2.1-2.1,3.7
		c0,1,0.4,1.9,1.1,2.6c0.8,0.7,1.9,1.1,3.3,1.1c1.9,0,3.5-0.7,4.8-2.1c1.2-1.4,1.9-3.1,1.9-5C412.8,303.4,412.8,302.9,412.8,302.4z"
		/>
	<path d="M423.9,312.8h-1.6v-28h3.2v10.7c1.5-2.7,3.5-4,6.1-4c2.4,0,4.4,0.9,6,2.8c1.6,1.9,2.4,4.6,2.4,8.2c0,3.1-0.8,5.7-2.4,7.7
		c-1.6,2.1-3.6,3.1-6.2,3.1c-2.8,0-5-1.3-6.5-4L423.9,312.8z M425.6,304.6c0.2,2.1,0.8,3.7,2,4.6c1.2,1,2.4,1.4,3.7,1.4
		c1.6,0,3-0.7,4-2.1c1-1.4,1.5-3.4,1.5-5.8c0-2.7-0.5-4.8-1.5-6.3c-1-1.5-2.3-2.3-4-2.3c-1.4,0-2.6,0.5-3.7,1.6s-1.7,2.5-1.9,4.2
		V304.6z"/>
	<path d="M448.1,312.8h-3.2v-28h3.2V312.8z"/>
	<path d="M468.2,306.6l3,0.6c-0.5,1.8-1.6,3.2-3.2,4.4c-1.6,1.2-3.5,1.7-5.6,1.7c-2.8,0-5.1-1-6.9-3s-2.6-4.6-2.6-7.8
		c0-3.3,0.9-6,2.7-8s4.1-3,6.8-3c2.7,0,4.9,0.9,6.5,2.8c1.6,1.9,2.5,4.7,2.5,8.4h-15c0,3.1,0.7,5.2,2,6.3c1.3,1.1,2.7,1.6,4.2,1.6
		C465.3,310.7,467.1,309.3,468.2,306.6z M468,300.3c0-1.2-0.2-2.2-0.6-3.1s-1-1.7-1.8-2.3c-0.8-0.6-1.9-1-3.1-1
		c-1.6,0-3,0.6-4.1,1.7c-1.1,1.1-1.7,2.7-1.9,4.6H468z"/>
</g>
</svg>
